<?xml version="1.0" standalone="no"?>
<!DOCTYPE svg PUBLIC "-//W3C//DTD SVG 20010904//EN"
 "http://www.w3.org/TR/2001/REC-SVG-20010904/DTD/svg10.dtd">
<svg version="1.0" xmlns="http://www.w3.org/2000/svg"
 width="500.000000pt" height="500.000000pt" viewBox="0 0 500.000000 500.000000"
 preserveAspectRatio="xMidYMid meet">

<g transform="translate(0.000000,500.000000) scale(0.100000,-0.100000)"
fill="#000000" stroke="none">
<path d="M0 4900 l0 -100 25 0 c24 0 25 2 25 75 l0 75 200 0 200 0 0 25 0 25
-225 0 -225 0 0 -100z"/>
<path d="M2050 3271 c-31 -5 -35 -10 -38 -39 -2 -19 4 -44 13 -58 13 -20 24
-24 63 -24 50 1 82 17 82 43 0 9 -9 32 -21 51 -22 37 -29 40 -99 27z"/>
<path d="M2224 3184 c-48 -23 -129 -99 -120 -112 10 -17 18 -15 46 11 14 12
42 35 62 51 l37 28 3 -58 c2 -35 8 -59 16 -62 9 -3 12 14 12 60 0 36 -6 72
-12 81 -12 15 -16 15 -44 1z"/>
<path d="M2489 3193 c0 -4 0 -38 1 -75 1 -65 0 -69 -35 -103 -19 -20 -51 -43
-70 -50 -18 -8 -36 -19 -40 -25 -3 -5 -15 -10 -26 -10 -10 0 -27 -4 -37 -9
-33 -17 -107 -39 -156 -46 -71 -10 -102 -23 -88 -37 9 -9 24 -9 63 0 28 7 63
12 79 12 16 0 31 4 34 9 4 5 24 12 46 16 22 4 42 11 46 16 3 5 16 9 29 9 13 0
27 5 30 10 4 6 22 17 41 25 19 8 53 33 75 56 l40 41 -3 81 c-2 53 -7 82 -15
85 -7 2 -13 0 -14 -5z"/>
<path d="M1740 3081 c-33 -9 -41 -50 -11 -58 12 -3 21 -9 21 -14 0 -20 42 -49
71 -49 22 0 32 5 36 20 3 11 9 20 14 20 18 0 8 26 -20 58 -31 33 -56 38 -111
23z"/>
<path d="M2370 195 l0 -195 50 0 c43 0 50 3 50 20 0 13 -7 20 -20 20 -19 0
-20 7 -20 150 0 143 1 150 20 150 15 0 20 7 20 25 0 23 -3 25 -50 25 l-50 0 0
-195z"/>
<path d="M2770 235 l0 -155 30 0 30 0 0 155 0 155 -30 0 -30 0 0 -155z"/>
<path d="M3610 235 l0 -155 30 0 30 0 0 78 c0 88 13 116 51 110 23 -3 24 -6
27 -95 l3 -93 29 0 30 0 0 95 c0 88 -2 98 -25 120 -28 29 -61 32 -93 9 -22
-15 -22 -15 -22 35 0 50 -1 51 -30 51 l-30 0 0 -155z"/>
<path d="M4130 235 l0 -155 30 0 30 0 0 155 0 155 -30 0 -30 0 0 -155z"/>
<path d="M4390 346 l0 -44 -28 10 c-87 33 -151 -72 -108 -177 23 -54 78 -71
124 -39 20 14 22 14 22 0 0 -10 9 -16 25 -16 l25 0 0 155 0 155 -30 0 c-29 0
-30 -2 -30 -44z m-12 -88 c16 -16 16 -100 0 -116 -33 -33 -78 1 -78 58 0 57
45 91 78 58z"/>
<path d="M4900 365 c0 -18 5 -25 20 -25 19 0 20 -7 20 -150 0 -143 -1 -150
-20 -150 -13 0 -20 -7 -20 -20 0 -17 7 -20 50 -20 l50 0 0 195 0 195 -50 0
c-47 0 -50 -2 -50 -25z"/>
<path d="M2590 303 c-17 -12 -25 -13 -28 -5 -2 7 -15 12 -28 12 l-24 0 0 -155
0 -155 30 0 c30 0 30 0 30 56 0 55 0 55 22 40 32 -22 62 -20 94 8 24 20 28 32
32 89 4 63 3 68 -26 97 -34 34 -66 38 -102 13z m58 -45 c16 -16 16 -100 0
-116 -33 -33 -78 1 -78 58 0 57 45 91 78 58z"/>
<path d="M2924 308 c-12 -5 -26 -20 -32 -33 -9 -20 -8 -24 15 -30 17 -4 29 -1
37 10 17 23 61 16 61 -9 0 -14 -12 -22 -48 -31 -58 -15 -79 -34 -79 -71 0 -53
71 -83 119 -49 19 13 22 13 27 0 3 -8 16 -15 28 -15 22 0 23 2 20 87 -1 49 -5
97 -7 109 -8 38 -91 57 -141 32z m86 -136 c0 -37 -46 -56 -69 -28 -13 15 0 30
34 39 34 8 35 8 35 -11z"/>
<path d="M3159 292 c-32 -28 -34 -35 -34 -92 0 -57 2 -64 33 -91 51 -46 127
-36 156 20 15 28 15 29 -10 35 -20 5 -30 2 -41 -14 -17 -24 -46 -26 -67 -4
-18 18 -21 76 -6 105 13 23 55 25 68 3 6 -11 16 -13 35 -9 32 8 33 15 9 45
-12 15 -33 24 -63 27 -41 5 -50 2 -80 -25z"/>
<path d="M3413 310 c-35 -14 -55 -55 -55 -110 0 -57 20 -96 58 -110 45 -18 82
-11 116 18 l31 29 -28 7 c-16 4 -32 3 -38 -3 -17 -17 -52 -13 -70 7 -10 10
-17 22 -17 25 0 4 34 7 75 7 74 0 75 0 75 26 0 83 -73 134 -147 104z m81 -62
c14 -24 5 -30 -43 -26 -41 3 -41 3 -25 26 18 26 51 26 68 0z"/>
<path d="M3925 311 c-38 -17 -58 -50 -63 -105 -4 -48 -1 -56 26 -87 27 -30 36
-34 82 -34 46 0 55 4 81 33 24 26 29 41 29 82 0 40 -5 56 -27 80 -30 33 -90
48 -128 31z m79 -54 c13 -10 19 -27 19 -57 0 -30 -6 -47 -19 -57 -43 -31 -84
-3 -84 57 0 60 41 88 84 57z"/>
<path d="M4553 310 c-35 -14 -55 -55 -55 -110 0 -57 20 -96 58 -110 45 -18 82
-11 116 18 l31 29 -28 7 c-16 4 -32 3 -38 -3 -17 -17 -52 -13 -70 7 -10 10
-17 22 -17 25 0 4 34 7 75 7 74 0 75 0 75 26 0 83 -73 134 -147 104z m81 -62
c14 -24 5 -30 -43 -26 -41 3 -41 3 -25 26 18 26 51 26 68 0z"/>
<path d="M4827 303 c-11 -11 -17 -13 -17 -5 0 7 -13 12 -30 12 l-30 0 0 -115
0 -115 30 0 30 0 0 71 c0 82 11 109 45 109 24 0 42 30 30 50 -10 15 -39 12
-58 -7z"/>
</g>
</svg>
