<svg version="1.0" xmlns="http://www.w3.org/2000/svg"
 width="500.000000pt" height="500.000000pt" viewBox="0 0 500.000000 500.000000"
 preserveAspectRatio="xMidYMid meet">

<g transform="translate(0.000000,500.000000) scale(0.100000,-0.100000)"
fill="#000000" stroke="none">
<path d="M3150 4901 c0 -4 -40 -14 -90 -20 -70 -10 -90 -16 -95 -31 -4 -11
-20 -20 -47 -24 -24 -4 -50 -17 -62 -29 -12 -13 -29 -26 -39 -30 -9 -3 -17
-11 -17 -16 0 -5 -9 -13 -20 -16 -11 -3 -20 -12 -20 -19 0 -15 -45 -66 -58
-66 -11 0 -42 -150 -42 -206 0 -42 -11 -53 -65 -68 -28 -8 -55 -126 -55 -242
0 -92 24 -237 41 -242 5 -2 9 -17 9 -33 0 -16 5 -29 10 -29 6 0 10 -13 10 -30
0 -16 4 -30 9 -30 4 0 11 -18 14 -41 3 -25 15 -49 31 -64 14 -13 26 -29 26
-35 0 -5 22 -10 50 -10 39 0 52 -4 60 -20 6 -11 20 -20 30 -20 11 0 20 -4 20
-10 0 -5 27 -18 60 -27 33 -10 60 -24 60 -30 0 -7 9 -13 20 -13 12 0 39 -18
61 -40 22 -22 47 -40 55 -40 8 0 14 -4 14 -10 0 -6 57 -10 150 -10 93 0 150 4
150 10 0 6 15 10 32 10 48 0 188 23 188 31 0 4 16 10 35 13 19 4 35 11 35 16
0 5 9 12 20 15 11 3 20 13 20 20 0 8 14 21 30 30 17 9 30 20 30 25 0 6 7 10
16 10 9 0 18 9 21 20 3 11 8 20 12 20 3 0 15 20 26 45 11 25 22 45 26 45 4 0
10 16 13 35 4 19 13 35 20 35 17 0 26 92 26 255 0 138 -7 195 -25 195 -9 0
-14 38 -19 133 -4 72 -11 133 -16 135 -5 2 -12 20 -16 40 -9 56 -25 102 -34
102 -5 0 -11 13 -15 30 -5 24 -13 31 -41 36 -19 3 -34 10 -34 15 0 5 -52 10
-117 11 l-116 3 -16 43 c-8 23 -19 42 -24 42 -5 0 -24 16 -43 35 -18 19 -40
35 -48 35 -9 0 -16 5 -16 10 0 6 -47 10 -120 10 -66 0 -120 -4 -120 -9z m217
-137 c12 -3 26 -19 32 -35 9 -28 9 -29 -19 -29 -18 0 -39 10 -57 29 -16 16
-38 31 -49 34 -10 2 1 5 26 6 25 0 55 -2 67 -5z m-249 -121 c-21 -2 -38 -8
-38 -14 0 -5 -11 -9 -25 -9 -14 0 -25 4 -25 9 0 11 37 18 90 18 l35 0 -37 -4z
m-121 -29 c-3 -3 -12 -4 -19 -1 -8 3 -5 6 6 6 11 1 17 -2 13 -5z m-37 -13 c0
-5 -9 -11 -19 -14 -14 -3 -18 -1 -14 9 6 15 33 19 33 5z m438 -388 c-3 -153
-5 -178 -19 -181 -14 -2 -17 17 -22 139 -3 78 -10 145 -15 148 -5 3 -11 21
-14 39 -4 31 -4 32 34 32 l38 0 -2 -177z m349 52 c12 -9 25 -31 29 -50 3 -19
10 -35 15 -35 5 0 9 -43 9 -95 0 -57 -4 -95 -10 -95 -5 0 -10 -9 -10 -20 0
-28 -21 -70 -35 -70 -7 0 -22 -9 -35 -20 -13 -11 -29 -20 -37 -20 -7 0 -13 -6
-13 -14 0 -9 -18 -15 -52 -20 -62 -7 -199 -7 -180 1 6 2 12 11 12 19 0 10 12
14 39 14 22 0 46 6 54 14 7 8 35 21 60 30 58 20 84 45 93 90 3 20 10 36 15 36
5 0 9 56 9 125 0 69 3 125 8 125 4 0 17 -7 29 -15z m-1070 -57 c-3 -8 -6 -5
-6 6 -1 11 2 17 5 13 3 -3 4 -12 1 -19z m441 -66 c-3 -42 -10 -64 -25 -79 -21
-21 -56 -43 -67 -43 -3 0 -6 30 -6 66 0 67 13 94 44 94 9 0 16 5 16 10 0 6 10
10 21 10 20 0 21 -4 17 -58z m612 -422 c0 -5 -11 -12 -25 -16 -14 -3 -25 -9
-25 -13 0 -16 -73 -33 -167 -38 -77 -4 -103 -9 -103 -19 0 -10 -16 -14 -60
-14 -67 0 -79 15 -35 44 19 13 51 16 150 16 69 0 125 4 125 9 0 4 27 11 60 15
33 4 60 11 60 16 0 6 5 10 10 10 6 0 10 -4 10 -10z"/>
<path d="M800 4361 c0 -5 -25 -13 -55 -16 -30 -4 -55 -11 -55 -15 0 -5 -18
-11 -39 -15 -24 -4 -41 -13 -43 -23 -3 -10 -24 -22 -51 -29 -26 -7 -47 -17
-47 -21 0 -8 -54 -70 -115 -133 -8 -9 -15 -19 -15 -22 0 -4 -18 -24 -39 -45
-22 -21 -43 -50 -46 -65 -4 -15 -11 -27 -15 -27 -5 0 -12 -20 -16 -45 -3 -25
-10 -45 -15 -45 -5 0 -9 -6 -9 -13 0 -16 -24 -36 -72 -62 -21 -10 -43 -32 -49
-47 -6 -15 -15 -28 -20 -28 -5 0 -11 -22 -15 -50 -4 -27 -10 -50 -15 -50 -5 0
-9 -18 -9 -40 0 -22 4 -40 9 -40 4 0 12 -28 15 -62 4 -35 12 -65 17 -69 5 -3
13 -50 19 -104 5 -55 14 -101 19 -103 6 -2 11 -12 11 -23 0 -10 18 -36 40 -58
22 -21 40 -42 40 -46 0 -12 62 -70 83 -78 9 -3 17 -12 17 -20 0 -7 24 -21 54
-30 30 -10 57 -24 60 -32 3 -10 19 -15 45 -15 22 0 41 -5 43 -11 2 -7 58 -13
159 -17 129 -4 157 -2 170 10 8 9 25 19 37 22 12 4 22 11 22 15 0 5 20 16 45
25 25 10 45 24 45 32 0 8 8 14 18 14 24 0 48 31 61 75 13 48 49 85 84 85 15 0
27 4 27 9 0 5 10 13 22 17 25 7 35 16 84 63 19 19 37 45 40 58 4 13 12 23 19
23 8 0 16 13 20 29 3 16 13 32 21 35 8 3 14 14 14 25 0 11 5 21 11 23 6 2 15
26 20 53 5 28 11 65 14 83 3 17 12 32 19 32 9 0 15 20 19 57 3 32 11 59 17 61
13 5 14 192 0 192 -5 0 -10 21 -10 48 0 61 -9 92 -26 92 -9 0 -14 11 -14 33 0
17 -8 58 -17 90 -13 43 -24 59 -40 63 -12 3 -24 17 -27 30 -4 13 -12 24 -19
24 -7 0 -18 14 -25 30 -11 24 -22 31 -53 36 -21 4 -39 10 -39 15 0 5 -101 9
-225 9 -132 0 -225 -4 -225 -9z m414 -227 c9 -3 16 -14 16 -23 -1 -15 -2 -15
-13 0 -7 9 -19 18 -27 22 -8 3 -10 6 -3 6 6 1 18 -2 27 -5z m-178 -264 c9 0
14 -11 14 -35 0 -24 -5 -35 -15 -35 -9 0 -15 9 -15 23 0 12 -3 33 -5 47 -3 14
-3 19 1 13 3 -7 12 -13 20 -13z m-116 -174 c0 -21 -6 -36 -15 -40 -8 -3 -15
-12 -15 -20 0 -9 -14 -15 -42 -18 -54 -6 -66 -2 -70 25 -3 19 -9 22 -48 22
-39 0 -45 -3 -48 -22 -4 -25 -22 -32 -22 -9 0 7 -10 20 -22 28 -16 11 -20 20
-14 41 l6 27 145 0 145 0 0 -34z m287 -28 c-3 -7 -5 -2 -5 12 0 14 2 19 5 13
2 -7 2 -19 0 -25z m-799 -429 c2 -5 10 -9 18 -9 8 0 18 -8 21 -17 4 -10 14
-25 22 -33 23 -22 43 -61 36 -68 -3 -4 -9 -2 -13 4 -4 6 -22 14 -40 17 -41 8
-58 24 -67 65 -3 18 -11 32 -16 32 -5 0 -9 7 -9 16 0 11 6 14 23 8 12 -3 24
-11 25 -15z m432 -239 c0 -5 -4 -10 -10 -10 -5 0 -10 5 -10 10 0 6 5 10 10 10
6 0 10 -4 10 -10z"/>
<path d="M4774 3018 c-4 -13 -11 -26 -16 -29 -6 -4 -12 -46 -15 -95 -3 -49
-10 -92 -15 -95 -5 -3 -12 -23 -15 -45 -4 -21 -12 -45 -20 -52 -7 -7 -13 -22
-13 -33 0 -10 -4 -19 -9 -19 -4 0 -11 -19 -14 -41 -3 -23 -10 -45 -15 -48 -5
-3 -12 -26 -15 -51 -3 -24 -11 -46 -16 -48 -6 -2 -11 -12 -11 -23 0 -11 -7
-22 -15 -25 -8 -4 -15 -18 -15 -33 0 -15 -9 -34 -20 -44 -11 -9 -20 -24 -20
-33 0 -9 -8 -24 -18 -33 -10 -9 -24 -35 -31 -58 -8 -23 -20 -44 -27 -47 -8 -3
-14 -10 -14 -16 0 -15 -33 -50 -48 -50 -7 0 -14 -6 -16 -12 -3 -7 -10 -34 -17
-60 -7 -27 -17 -48 -21 -48 -4 0 -8 -6 -8 -14 0 -8 -6 -21 -13 -28 -8 -7 -17
-26 -21 -41 -3 -15 -13 -27 -20 -27 -8 0 -17 -13 -21 -30 -4 -16 -11 -32 -16
-35 -5 -4 -9 -17 -9 -31 0 -13 -4 -24 -9 -24 -5 0 -12 -14 -16 -30 -4 -16 -11
-30 -16 -30 -5 0 -9 -7 -9 -15 0 -8 -4 -15 -10 -15 -5 0 -10 -9 -10 -20 0 -10
-16 -35 -35 -54 -19 -20 -35 -40 -35 -46 0 -5 -7 -10 -15 -10 -8 0 -15 -6 -15
-14 0 -8 -10 -18 -21 -21 -12 -4 -37 -23 -56 -41 -18 -19 -38 -34 -44 -34 -5
0 -13 -8 -16 -17 -4 -10 -17 -26 -30 -36 -13 -10 -23 -25 -23 -33 0 -8 -4 -14
-9 -14 -5 0 -13 -9 -16 -20 -3 -11 -13 -20 -21 -20 -8 0 -14 -5 -14 -10 0 -6
-17 -18 -37 -28 -43 -19 -63 -36 -63 -51 0 -14 -37 -51 -50 -51 -6 0 -15 -11
-21 -24 -8 -16 -23 -26 -45 -31 -19 -3 -34 -10 -34 -15 0 -23 -83 -80 -116
-80 -21 0 -54 -32 -54 -52 0 -11 -8 -18 -20 -18 -11 0 -20 -4 -20 -8 0 -5 -20
-17 -45 -28 -25 -10 -45 -22 -45 -26 0 -4 -11 -8 -25 -8 -14 0 -25 -4 -25 -10
0 -5 -7 -10 -15 -10 -8 0 -15 -4 -15 -9 0 -5 -13 -12 -30 -16 -16 -4 -30 -11
-30 -16 0 -5 -18 -12 -40 -15 -22 -4 -43 -11 -46 -15 -3 -5 -14 -9 -25 -9 -10
0 -19 -4 -19 -10 0 -19 -38 -48 -71 -55 -19 -4 -36 -10 -39 -14 -3 -3 -31 -15
-62 -25 -32 -11 -58 -25 -58 -33 0 -7 -17 -15 -40 -19 -22 -4 -40 -10 -40 -14
0 -5 -19 -11 -42 -15 -24 -4 -46 -12 -49 -17 -3 -5 -48 -13 -100 -18 -51 -5
-95 -14 -97 -19 -2 -6 -19 -11 -37 -11 -18 0 -35 -5 -37 -11 -2 -5 -22 -13
-46 -16 -23 -3 -42 -9 -42 -13 0 -4 -32 -10 -72 -13 -39 -3 -74 -10 -77 -15
-3 -5 -46 -12 -95 -15 -56 -4 -92 -11 -97 -19 -11 -18 -867 -17 -878 1 -4 6
-31 14 -59 18 -29 3 -52 9 -52 13 0 4 -12 11 -26 14 -15 4 -33 14 -41 21 -8 8
-23 15 -34 15 -10 0 -19 4 -19 9 0 14 -60 71 -75 71 -9 0 -18 7 -21 15 -7 17
-84 22 -84 5 0 -5 -7 -10 -15 -10 -10 0 -15 -11 -15 -35 0 -22 5 -35 13 -35 8
0 20 -11 27 -25 7 -14 18 -25 24 -25 7 0 23 -13 37 -29 14 -15 34 -31 46 -35
12 -4 24 -13 27 -21 3 -8 12 -15 21 -15 8 0 15 -4 15 -10 0 -5 13 -10 29 -10
16 0 37 -7 46 -16 9 -9 37 -19 63 -22 26 -3 50 -10 54 -16 5 -7 58 -12 143
-14 74 -2 135 -8 135 -13 0 -5 124 -9 290 -9 166 0 290 4 290 9 0 5 27 12 60
16 33 4 60 10 60 15 0 4 32 10 71 12 39 3 74 10 78 15 3 6 46 13 96 16 49 4
91 11 93 16 2 6 20 13 40 17 20 4 40 11 43 16 3 5 45 11 92 15 48 3 87 9 87
13 0 4 19 10 41 13 23 3 45 10 48 15 3 5 25 13 49 17 23 4 42 11 42 16 0 5 13
9 29 9 16 0 36 7 45 15 8 8 22 15 30 15 9 0 16 4 16 8 0 4 16 14 35 21 19 7
35 16 35 20 0 5 18 11 40 15 22 3 40 10 40 15 0 5 9 11 20 14 11 3 20 11 20
19 0 8 26 21 65 32 36 10 65 22 65 26 0 5 13 11 29 15 16 3 32 13 35 21 3 8
19 14 36 14 18 0 30 5 30 13 0 8 19 20 43 27 23 8 50 22 60 32 10 10 23 18 29
18 11 0 48 38 48 50 0 3 24 14 53 25 28 10 56 24 60 32 4 7 15 13 22 13 8 0
15 6 15 13 0 14 23 36 67 64 15 10 34 23 41 30 7 7 18 13 23 13 5 0 9 6 9 13
0 17 38 50 73 62 16 6 36 24 45 40 22 37 42 57 75 74 15 8 27 18 27 23 0 9 15
29 35 49 25 24 71 59 78 59 4 0 12 11 17 25 5 14 16 25 25 25 8 0 15 4 15 9 0
5 9 13 20 16 11 3 20 13 20 20 0 8 8 19 18 24 10 5 24 25 32 45 7 20 19 36 26
36 7 0 15 18 19 40 4 22 11 40 15 40 5 0 11 14 15 30 4 17 10 30 14 30 4 0 16
27 26 60 10 34 24 60 32 60 7 0 13 7 13 15 0 9 6 18 14 21 8 3 18 19 21 35 4
16 11 29 16 29 5 0 9 9 9 20 0 26 19 59 48 85 12 11 22 28 22 36 0 9 11 22 25
29 14 8 28 24 31 37 4 13 10 23 15 23 5 0 9 11 9 24 0 14 6 31 14 38 7 8 17
24 20 36 4 12 12 22 17 22 5 0 9 9 9 19 0 11 7 27 16 35 8 9 18 32 21 51 3 19
10 35 14 35 5 0 9 6 9 14 0 8 6 21 14 28 7 8 15 38 18 67 3 29 10 56 15 60 5
3 13 24 16 46 4 22 11 41 17 43 5 2 10 10 10 18 0 8 4 14 9 14 12 0 31 103 31
171 0 31 5 59 11 61 16 5 14 65 -4 82 -9 9 -32 16 -56 16 -32 0 -41 -4 -47
-22z"/>
<path d="M3970 2966 c0 -11 -22 -16 -87 -21 -49 -3 -112 -11 -142 -16 -30 -5
-92 -9 -138 -9 -46 0 -83 -4 -83 -9 0 -5 -52 -10 -115 -13 -73 -2 -118 -7
-123 -15 -4 -7 -59 -14 -145 -18 -105 -6 -137 -11 -137 -21 0 -10 -16 -14 -57
-14 -32 0 -130 -7 -218 -15 -113 -11 -265 -15 -522 -14 -402 2 -393 3 -393
-64 0 -30 4 -37 31 -46 18 -6 43 -11 55 -11 13 0 24 -4 24 -10 0 -6 39 -11 93
-12 50 -1 73 -3 50 -5 -27 -3 -43 -9 -43 -17 0 -9 -25 -15 -86 -19 -56 -3 -90
-10 -96 -18 -9 -15 -4 -86 7 -97 8 -8 -10 -8 693 -4 456 2 522 4 522 17 0 12
19 15 113 15 61 0 164 2 227 5 63 2 107 2 98 -1 -10 -3 -18 -12 -18 -20 0 -8
-8 -18 -17 -21 -10 -4 -20 -9 -23 -12 -10 -11 -50 -31 -63 -31 -7 0 -20 -9
-30 -20 -9 -11 -24 -20 -32 -20 -8 0 -15 -7 -15 -15 0 -9 -8 -19 -17 -22 -10
-4 -25 -15 -34 -25 -9 -10 -21 -18 -26 -18 -6 0 -19 -11 -29 -25 -10 -14 -22
-25 -27 -25 -4 0 -20 -13 -35 -28 -15 -16 -42 -34 -59 -42 -18 -7 -33 -18 -33
-25 0 -17 -68 -85 -96 -95 -13 -5 -24 -17 -24 -26 0 -16 -77 -94 -92 -94 -5 0
-22 -14 -38 -30 -37 -38 -42 -95 -10 -105 11 -3 20 -11 20 -16 0 -5 16 -9 35
-9 19 0 35 4 35 9 0 5 20 12 45 15 25 4 45 11 45 17 0 5 6 9 13 9 7 0 20 8 29
18 29 32 62 52 84 52 13 0 25 8 29 19 3 11 23 23 50 31 25 7 45 16 45 21 0 4
15 11 34 15 19 3 37 12 40 20 3 8 15 14 26 14 11 0 20 5 20 11 0 16 31 38 52
39 9 0 33 16 54 35 20 19 45 35 55 35 11 0 19 6 19 13 0 7 20 32 45 55 25 23
45 47 45 52 0 6 7 10 15 10 16 0 65 46 65 61 0 5 7 12 15 15 8 4 15 12 15 20
0 8 5 14 10 14 6 0 10 4 10 10 0 16 72 80 92 80 10 0 18 6 18 13 0 7 14 24 31
37 17 14 38 32 48 41 10 9 30 19 45 23 14 3 26 13 26 21 0 8 11 17 25 21 14 3
25 10 25 14 0 5 23 16 50 25 28 9 50 21 50 26 0 5 7 9 16 9 19 0 39 19 48 47
8 26 -16 53 -47 53 -15 0 -27 10 -36 33 -8 17 -20 37 -25 44 -6 7 -17 19 -24
28 -7 8 -24 15 -37 15 -16 0 -25 6 -25 15 0 8 -9 15 -20 15 -11 0 -20 -6 -20
-14z m-130 -176 c0 -5 -9 -10 -20 -10 -19 0 -64 -38 -72 -60 -6 -18 -75 -30
-213 -37 -71 -3 -132 -10 -135 -14 -3 -4 -179 -10 -390 -13 -212 -3 -376 -3
-365 0 11 4 22 10 25 14 5 7 172 20 463 36 59 3 107 10 107 15 0 5 34 9 75 9
43 0 75 4 75 10 0 6 31 10 74 10 46 0 76 4 78 11 2 7 47 13 121 17 64 2 117 9
117 13 0 5 14 9 30 9 17 0 30 -4 30 -10z"/>
</g>
</svg>